<mxfile host="app.diagrams.net" modified="2023-05-18T10:09:52.837Z" agent="Mozilla/5.0 (Windows NT 10.0; Win64; x64) AppleWebKit/537.36 (KHTML, like Gecko) Chrome/113.0.0.0 Safari/537.36" version="21.3.2" etag="eKuu-1YDqTw8kiTSpq_M" type="github">
  <diagram name="Page-1" id="5lexOQ12C79hOM9uRBIe">
    <mxGraphModel>
      <root>
        <mxCell id="0" />
        <mxCell id="1" parent="0" />
      </root>
    </mxGraphModel>
  </diagram>
</mxfile>
